<mxfile host="65bd71144e">
    <diagram id="05PRsCcx1xvOo9idGmsl" name="Page-1">
        <mxGraphModel dx="1097" dy="787" grid="1" gridSize="10" guides="1" tooltips="1" connect="1" arrows="1" fold="1" page="1" pageScale="1" pageWidth="850" pageHeight="1100" math="0" shadow="0">
            <root>
                <mxCell id="0"/>
                <mxCell id="1" parent="0"/>
                <mxCell id="2" value="" style="rounded=0;whiteSpace=wrap;html=1;" parent="1" vertex="1">
                    <mxGeometry x="153" y="100" width="558" height="770" as="geometry"/>
                </mxCell>
                <mxCell id="19" style="edgeStyle=none;html=1;fontSize=12;endArrow=none;endFill=0;entryX=-0.001;entryY=0.45;entryDx=0;entryDy=0;entryPerimeter=0;exitX=1;exitY=0.3333333333333333;exitDx=0;exitDy=0;exitPerimeter=0;" parent="1" source="3" target="9" edge="1">
                    <mxGeometry relative="1" as="geometry"/>
                </mxCell>
                <mxCell id="3" value="User" style="shape=umlActor;verticalLabelPosition=bottom;verticalAlign=top;html=1;outlineConnect=0;" parent="1" vertex="1">
                    <mxGeometry x="30" y="340" width="50" height="110" as="geometry"/>
                </mxCell>
                <mxCell id="4" value="Database" style="shape=umlActor;verticalLabelPosition=bottom;verticalAlign=top;html=1;outlineConnect=0;" parent="1" vertex="1">
                    <mxGeometry x="740" y="420" width="50" height="100" as="geometry"/>
                </mxCell>
                <mxCell id="8" value="1. User Account Subsystem" style="text;html=1;strokeColor=none;fillColor=none;align=center;verticalAlign=middle;whiteSpace=wrap;rounded=0;fontSize=18;" parent="1" vertex="1">
                    <mxGeometry x="345" y="120" width="190" height="30" as="geometry"/>
                </mxCell>
                <mxCell id="15" style="edgeStyle=none;html=1;entryX=0;entryY=0.5;entryDx=0;entryDy=0;fontSize=18;endArrow=classic;endFill=1;dashed=1;" parent="1" source="9" target="14" edge="1">
                    <mxGeometry relative="1" as="geometry"/>
                </mxCell>
                <mxCell id="17" value="&lt;font style=&quot;font-size: 12px;&quot;&gt;&amp;lt;&amp;lt;includes&amp;gt;&amp;gt;&lt;/font&gt;" style="edgeLabel;html=1;align=center;verticalAlign=middle;resizable=0;points=[];fontSize=14;" parent="15" vertex="1" connectable="0">
                    <mxGeometry x="-0.2476" y="1" relative="1" as="geometry">
                        <mxPoint x="3" y="-21" as="offset"/>
                    </mxGeometry>
                </mxCell>
                <mxCell id="9" value="Sign Up" style="ellipse;whiteSpace=wrap;html=1;fontSize=18;" parent="1" vertex="1">
                    <mxGeometry x="270" y="210" width="120" height="80" as="geometry"/>
                </mxCell>
                <mxCell id="18" style="edgeStyle=none;html=1;entryX=0;entryY=0.3333333333333333;entryDx=0;entryDy=0;entryPerimeter=0;fontSize=12;endArrow=none;endFill=0;exitX=1;exitY=0.5;exitDx=0;exitDy=0;" parent="1" source="9" target="4" edge="1">
                    <mxGeometry relative="1" as="geometry"/>
                </mxCell>
                <mxCell id="14" value="&lt;font style=&quot;font-size: 14px;&quot;&gt;Verify Email Format&lt;/font&gt;" style="ellipse;whiteSpace=wrap;html=1;fontSize=18;" parent="1" vertex="1">
                    <mxGeometry x="550" y="160" width="110" height="60" as="geometry"/>
                </mxCell>
                <mxCell id="20" value="Log In" style="ellipse;whiteSpace=wrap;html=1;fontSize=18;" parent="1" vertex="1">
                    <mxGeometry x="270" y="410" width="105" height="70" as="geometry"/>
                </mxCell>
                <mxCell id="21" style="edgeStyle=none;html=1;fontSize=12;endArrow=none;endFill=0;entryX=0;entryY=0.5;entryDx=0;entryDy=0;exitX=1;exitY=0.3333333333333333;exitDx=0;exitDy=0;exitPerimeter=0;" parent="1" source="3" target="20" edge="1">
                    <mxGeometry relative="1" as="geometry">
                        <mxPoint x="90" y="460" as="sourcePoint"/>
                        <mxPoint x="279.8800000000001" y="256" as="targetPoint"/>
                    </mxGeometry>
                </mxCell>
                <mxCell id="22" style="edgeStyle=none;html=1;fontSize=12;endArrow=none;endFill=0;entryX=0;entryY=0.3333333333333333;entryDx=0;entryDy=0;entryPerimeter=0;exitX=1;exitY=0.5;exitDx=0;exitDy=0;" parent="1" source="20" target="4" edge="1">
                    <mxGeometry relative="1" as="geometry">
                        <mxPoint x="100" y="470" as="sourcePoint"/>
                        <mxPoint x="289.8800000000001" y="266" as="targetPoint"/>
                    </mxGeometry>
                </mxCell>
                <mxCell id="23" style="edgeStyle=none;html=1;fontSize=18;endArrow=classic;endFill=1;exitX=1.017;exitY=0.425;exitDx=0;exitDy=0;exitPerimeter=0;entryX=0;entryY=0.5;entryDx=0;entryDy=0;dashed=1;" parent="1" source="9" target="25" edge="1">
                    <mxGeometry relative="1" as="geometry">
                        <mxPoint x="395.70860145311553" y="245.1443729458358" as="sourcePoint"/>
                        <mxPoint x="740" y="290" as="targetPoint"/>
                    </mxGeometry>
                </mxCell>
                <mxCell id="24" value="&lt;font style=&quot;font-size: 12px;&quot;&gt;&amp;lt;&amp;lt;includes&amp;gt;&amp;gt;&lt;/font&gt;" style="edgeLabel;html=1;align=center;verticalAlign=middle;resizable=0;points=[];fontSize=14;" parent="23" vertex="1" connectable="0">
                    <mxGeometry x="-0.2476" y="1" relative="1" as="geometry">
                        <mxPoint x="3" y="-21" as="offset"/>
                    </mxGeometry>
                </mxCell>
                <mxCell id="25" value="&lt;font style=&quot;font-size: 14px;&quot;&gt;Verify Password&lt;/font&gt;" style="ellipse;whiteSpace=wrap;html=1;fontSize=18;" parent="1" vertex="1">
                    <mxGeometry x="550" y="250" width="110" height="60" as="geometry"/>
                </mxCell>
                <mxCell id="26" value="&lt;font style=&quot;font-size: 14px;&quot;&gt;Validate entered details&lt;/font&gt;" style="ellipse;whiteSpace=wrap;html=1;fontSize=18;" parent="1" vertex="1">
                    <mxGeometry x="460" y="550" width="145.5" height="70" as="geometry"/>
                </mxCell>
                <mxCell id="27" style="edgeStyle=none;html=1;entryX=0.003;entryY=0.429;entryDx=0;entryDy=0;fontSize=18;endArrow=classic;endFill=1;exitX=1;exitY=0.5;exitDx=0;exitDy=0;entryPerimeter=0;dashed=1;" parent="1" source="20" target="26" edge="1">
                    <mxGeometry relative="1" as="geometry">
                        <mxPoint x="225.5328173723392" y="374.8546861711801" as="sourcePoint"/>
                        <mxPoint x="390" y="330" as="targetPoint"/>
                    </mxGeometry>
                </mxCell>
                <mxCell id="28" value="&lt;font style=&quot;font-size: 12px;&quot;&gt;&amp;lt;&amp;lt;includes&amp;gt;&amp;gt;&lt;/font&gt;" style="edgeLabel;html=1;align=center;verticalAlign=middle;resizable=0;points=[];fontSize=14;" parent="27" vertex="1" connectable="0">
                    <mxGeometry x="-0.2476" y="1" relative="1" as="geometry">
                        <mxPoint x="52" y="5" as="offset"/>
                    </mxGeometry>
                </mxCell>
            </root>
        </mxGraphModel>
    </diagram>
</mxfile>